<svg width="22" height="26" viewBox="0 0 22 26" fill="none" xmlns="http://www.w3.org/2000/svg">
<path fill-rule="evenodd" clip-rule="evenodd" d="M13.3389 13.97C13.3389 15.6747 13.382 17.0963 12.5194 18.6103C11.8231 19.8411 10.7141 20.5981 9.48797 20.5981C7.8059 20.5981 6.82007 19.318 6.82007 17.4287C6.82007 13.6992 10.1657 13.0223 13.3389 13.0223V13.97V13.97ZM17.7566 24.6352C17.467 24.8937 17.048 24.9122 16.7215 24.7399C15.2674 23.5336 15.0024 22.9736 14.2076 21.8228C11.8047 24.2721 10.0979 25.0045 6.98642 25.0045C3.29572 25.0045 0.430664 22.7336 0.430664 18.1856C0.430664 14.6347 2.35303 12.2161 5.10103 11.0345C7.47934 9.98825 10.8003 9.80363 13.3389 9.51438V8.9482C13.3389 7.90814 13.419 6.6773 12.8028 5.77879C12.2729 4.97259 11.2501 4.64026 10.3444 4.64026C8.67465 4.64026 7.18975 5.49569 6.82623 7.2681C6.75229 7.66197 6.46271 8.04969 6.06221 8.06815L1.81698 7.61273C1.45962 7.53273 1.05913 7.24348 1.16387 6.69576C2.13738 1.55086 6.79542 0 10.9605 0C13.0924 0 15.8774 0.566187 17.5594 2.17858C19.6913 4.16639 19.488 6.81884 19.488 9.70516V16.524C19.488 18.5734 20.3382 19.4719 21.1392 20.5796C21.4165 20.9735 21.4781 21.4474 21.1207 21.7428C20.2273 22.4874 18.6377 23.8721 17.7627 24.6475L17.7566 24.6352" fill="black"/>
</svg>
